<svg xmlns="http://www.w3.org/2000/svg" xmlns:xlink="http://www.w3.org/1999/xlink" width="100" zoomAndPan="magnify" viewBox="0 0 75 74.999997" height="100" preserveAspectRatio="xMidYMid meet" version="1.0"><defs><clipPath id="b1b7c671dc"><path d="M 4.457031 7.5 L 68.957031 7.5 L 68.957031 67.5 L 4.457031 67.5 Z M 4.457031 7.5 " clip-rule="nonzero"/></clipPath></defs><g clip-path="url(#b1b7c671dc)"><path fill="#000000" d="M 56.410156 56.320312 C 55.789062 56.175781 55.199219 56.039062 54.652344 55.90625 C 54.507812 55.871094 54.445312 55.800781 54.429688 55.777344 L 54.429688 50.484375 C 55.128906 49.941406 55.8125 49.34375 56.464844 48.695312 C 58.628906 46.535156 60.21875 44.035156 61.160156 41.375 C 64.640625 39.105469 66.335938 35.410156 66.335938 30.082031 C 66.335938 24.652344 64.988281 19.710938 62.441406 15.800781 C 62.15625 15.363281 61.570312 15.242188 61.136719 15.527344 C 60.699219 15.8125 60.578125 16.394531 60.859375 16.832031 C 63.210938 20.433594 64.449219 25.015625 64.449219 30.082031 C 64.449219 33.609375 63.628906 36.296875 61.957031 38.214844 C 62.085938 37.371094 62.152344 36.515625 62.152344 35.65625 C 62.152344 28.148438 60.648438 22.890625 57.554688 19.585938 C 55.035156 16.890625 51.527344 15.582031 46.832031 15.582031 C 46.824219 15.582031 46.816406 15.582031 46.808594 15.582031 C 36.589844 15.59375 31.40625 22.347656 31.40625 35.65625 C 31.40625 36.515625 31.472656 37.371094 31.601562 38.214844 C 29.929688 36.296875 29.109375 33.609375 29.109375 30.082031 C 29.109375 15.785156 37.984375 9.386719 46.777344 9.386719 C 51.328125 9.386719 55.171875 10.824219 58.207031 13.65625 C 58.585938 14.011719 59.183594 13.988281 59.539062 13.609375 C 59.894531 13.226562 59.875 12.632812 59.492188 12.277344 C 56.144531 9.152344 51.75 7.503906 46.777344 7.503906 C 40.746094 7.503906 35.6875 9.871094 32.152344 14.359375 C 28.972656 18.390625 27.222656 23.976562 27.222656 30.082031 C 27.222656 35.410156 28.917969 39.105469 32.398438 41.375 C 32.882812 42.746094 33.539062 44.074219 34.359375 45.332031 L 29.992188 47.855469 C 29.210938 47.132812 28.09375 46.828125 27.023438 47.105469 L 23.652344 47.976562 L 23.503906 47.722656 C 22.953125 46.765625 21.722656 46.433594 20.765625 46.988281 L 18.078125 48.539062 C 16.957031 49.1875 16 50.117188 15.320312 51.222656 C 14.667969 52.285156 13.714844 53.105469 12.566406 53.589844 L 11.390625 54.085938 C 10.910156 54.289062 10.6875 54.839844 10.886719 55.320312 C 11.089844 55.800781 11.644531 56.023438 12.125 55.824219 L 13.300781 55.324219 C 14.8125 54.6875 16.070312 53.609375 16.929688 52.210938 C 17.445312 51.371094 18.167969 50.664062 19.023438 50.171875 L 21.707031 48.621094 C 21.765625 48.589844 21.839844 48.609375 21.871094 48.667969 L 26.171875 56.117188 C 26.207031 56.175781 26.1875 56.25 26.128906 56.28125 L 23.445312 57.832031 C 22.589844 58.324219 21.617188 58.597656 20.632812 58.625 C 18.992188 58.671875 17.429688 59.21875 16.121094 60.210938 L 10.601562 64.386719 C 10.238281 64.664062 9.710938 64.558594 9.480469 64.160156 L 6.558594 59.101562 C 6.332031 58.703125 6.5 58.195312 6.925781 58.015625 L 8.070312 57.53125 C 8.550781 57.332031 8.773438 56.777344 8.574219 56.296875 C 8.371094 55.816406 7.816406 55.59375 7.335938 55.796875 L 6.191406 56.277344 C 5.492188 56.574219 4.953125 57.15625 4.710938 57.875 C 4.46875 58.597656 4.546875 59.386719 4.925781 60.042969 L 7.847656 65.101562 C 8.640625 66.476562 10.464844 66.855469 11.742188 65.890625 L 17.257812 61.714844 C 18.253906 60.960938 19.4375 60.546875 20.683594 60.511719 C 21.980469 60.476562 23.261719 60.113281 24.386719 59.464844 L 27.070312 57.914062 C 28.027344 57.363281 28.359375 56.132812 27.804688 55.175781 L 27.660156 54.917969 L 30.101562 52.433594 C 30.875 51.648438 31.171875 50.527344 30.9375 49.488281 L 35.464844 46.871094 C 36.527344 48.210938 37.765625 49.433594 39.128906 50.484375 L 39.128906 55.777344 C 39.117188 55.800781 39.050781 55.871094 38.910156 55.90625 C 38.355469 56.039062 37.769531 56.175781 37.148438 56.320312 C 31.859375 57.535156 24.617188 59.203125 24.617188 65.085938 L 24.617188 65.707031 C 24.617188 66.695312 25.507812 67.496094 26.601562 67.496094 L 66.957031 67.496094 C 68.050781 67.496094 68.941406 66.695312 68.941406 65.707031 L 68.941406 65.085938 C 68.941406 59.203125 61.699219 57.535156 56.410156 56.320312 Z M 28.757812 51.113281 L 26.679688 53.222656 L 24.628906 49.671875 L 27.496094 48.929688 C 28.777344 48.597656 29.683594 50.167969 28.757812 51.113281 Z M 33.414062 32.371094 C 37.414062 31.222656 42.015625 30.613281 46.78125 30.613281 C 51.546875 30.613281 56.152344 31.222656 60.152344 32.375 C 60.203125 33.058594 60.234375 33.765625 60.253906 34.496094 L 57.664062 36.222656 C 57.089844 36.605469 56.421875 36.804688 55.730469 36.804688 L 51.8125 36.804688 C 51.03125 36.804688 50.3125 36.347656 49.988281 35.636719 L 49.636719 34.867188 C 48.519531 32.433594 45.042969 32.421875 43.921875 34.867188 L 43.570312 35.632812 C 43.246094 36.347656 42.527344 36.804688 41.746094 36.804688 L 37.828125 36.804688 C 37.136719 36.804688 36.46875 36.605469 35.894531 36.222656 L 33.308594 34.496094 C 33.324219 33.765625 33.363281 33.054688 33.414062 32.371094 Z M 37.550781 20.886719 C 39.75 18.589844 42.777344 17.472656 46.8125 17.46875 L 46.832031 17.46875 C 50.976562 17.46875 54.03125 18.582031 56.175781 20.871094 C 58.136719 22.96875 59.398438 26.148438 59.949219 30.359375 C 55.957031 29.292969 51.4375 28.726562 46.78125 28.726562 C 42.128906 28.726562 37.617188 29.289062 33.628906 30.355469 C 34.203125 26.183594 35.515625 23.007812 37.550781 20.886719 Z M 37.121094 45.914062 L 37.710938 45.574219 C 38.164062 45.316406 38.316406 44.738281 38.058594 44.289062 C 37.796875 43.835938 37.21875 43.683594 36.769531 43.941406 L 36 44.386719 C 34.722656 42.449219 33.566406 39.886719 33.335938 36.78125 L 34.847656 37.792969 C 35.734375 38.378906 36.765625 38.691406 37.828125 38.691406 L 41.746094 38.691406 C 43.261719 38.691406 44.617188 37.785156 45.285156 36.421875 C 45.574219 35.832031 45.628906 35.421875 46.097656 35.121094 C 46.753906 34.703125 47.609375 34.96875 47.921875 35.652344 L 48.273438 36.421875 C 48.90625 37.800781 50.296875 38.691406 51.8125 38.691406 L 55.730469 38.691406 C 56.792969 38.691406 57.824219 38.382812 58.710938 37.789062 L 60.222656 36.78125 C 59.839844 41.914062 56.921875 45.578125 55.132812 47.363281 C 52.066406 50.421875 48.652344 51.8125 46.78125 51.8125 C 44.90625 51.8125 41.492188 50.421875 38.425781 47.363281 C 38.035156 46.96875 37.585938 46.484375 37.121094 45.914062 Z M 67.054688 65.597656 C 67.03125 65.605469 67 65.613281 66.957031 65.613281 L 26.601562 65.613281 C 26.5625 65.613281 26.527344 65.605469 26.503906 65.597656 L 26.503906 65.085938 C 26.503906 60.703125 32.640625 59.292969 37.570312 58.15625 C 38.199219 58.011719 38.792969 57.875 39.359375 57.734375 C 40.335938 57.492188 41.015625 56.695312 41.015625 55.789062 L 41.015625 51.777344 C 43.035156 52.996094 45.082031 53.699219 46.78125 53.699219 C 48.476562 53.699219 50.523438 52.996094 52.542969 51.777344 L 52.542969 55.789062 C 52.542969 56.695312 53.222656 57.492188 54.199219 57.734375 C 54.761719 57.875 55.359375 58.011719 55.988281 58.15625 C 60.917969 59.292969 67.054688 60.703125 67.054688 65.085938 Z M 67.054688 65.597656 " fill-opacity="1" fill-rule="nonzero"/></g><path fill="#000000" d="M 50.492188 44.597656 C 50.960938 44.371094 51.160156 43.808594 50.9375 43.339844 C 50.714844 42.871094 50.152344 42.667969 49.683594 42.890625 C 47.730469 43.820312 45.828125 43.820312 43.875 42.890625 C 43.40625 42.667969 42.84375 42.871094 42.621094 43.339844 C 42.398438 43.808594 42.597656 44.371094 43.066406 44.597656 C 44.300781 45.179688 45.539062 45.472656 46.78125 45.472656 C 48.019531 45.472656 49.257812 45.179688 50.492188 44.597656 Z M 50.492188 44.597656 " fill-opacity="1" fill-rule="nonzero"/><path fill="#000000" d="M 10.273438 40.640625 C 12.269531 41.300781 13.039062 42.070312 13.699219 44.070312 C 13.925781 44.746094 14.527344 45.183594 15.238281 45.183594 C 15.949219 45.183594 16.550781 44.746094 16.773438 44.070312 C 17.4375 42.070312 18.207031 41.300781 20.203125 40.640625 C 20.878906 40.417969 21.316406 39.8125 21.316406 39.105469 C 21.316406 38.394531 20.878906 37.789062 20.203125 37.566406 C 18.207031 36.90625 17.4375 36.136719 16.773438 34.136719 C 16.550781 33.460938 15.949219 33.023438 15.238281 33.023438 C 14.527344 33.023438 13.925781 33.460938 13.699219 34.136719 C 13.039062 36.136719 12.269531 36.90625 10.273438 37.566406 C 9.59375 37.789062 9.160156 38.394531 9.160156 39.105469 C 9.160156 39.8125 9.59375 40.417969 10.273438 40.640625 Z M 15.238281 35.429688 C 15.988281 37.304688 17.039062 38.351562 18.914062 39.105469 C 17.039062 39.855469 15.988281 40.90625 15.238281 42.78125 C 14.488281 40.90625 13.4375 39.855469 11.5625 39.105469 C 13.4375 38.351562 14.488281 37.304688 15.238281 35.429688 Z M 15.238281 35.429688 " fill-opacity="1" fill-rule="nonzero"/><path fill="#000000" d="M 15.269531 24.820312 C 17.234375 25.402344 17.820312 25.988281 18.402344 27.957031 C 18.578125 28.539062 19.101562 28.929688 19.707031 28.929688 C 20.3125 28.929688 20.839844 28.539062 21.011719 27.957031 C 21.59375 25.988281 22.179688 25.402344 24.144531 24.820312 C 24.726562 24.648438 25.121094 24.125 25.121094 23.519531 C 25.121094 22.910156 24.726562 22.386719 24.144531 22.214844 C 22.179688 21.632812 21.59375 21.046875 21.011719 19.078125 C 20.835938 18.496094 20.3125 18.105469 19.707031 18.105469 C 19.101562 18.105469 18.578125 18.496094 18.402344 19.078125 C 17.820312 21.046875 17.234375 21.632812 15.269531 22.214844 C 14.6875 22.386719 14.292969 22.910156 14.292969 23.519531 C 14.292969 24.125 14.6875 24.648438 15.269531 24.820312 Z M 19.707031 20.992188 C 20.265625 22.203125 21.023438 22.957031 22.234375 23.519531 C 21.023438 24.078125 20.265625 24.835938 19.707031 26.046875 C 19.148438 24.835938 18.390625 24.078125 17.179688 23.519531 C 18.390625 22.957031 19.148438 22.203125 19.707031 20.992188 Z M 19.707031 20.992188 " fill-opacity="1" fill-rule="nonzero"/></svg>