<svg xmlns="http://www.w3.org/2000/svg" xmlns:xlink="http://www.w3.org/1999/xlink" width="100" zoomAndPan="magnify" viewBox="0 0 75 74.999997" height="100" preserveAspectRatio="xMidYMid meet" version="1.0"><defs><clipPath id="f68ed3287b"><path d="M 11.363281 5.332031 L 63.863281 5.332031 L 63.863281 69.832031 L 11.363281 69.832031 Z M 11.363281 5.332031 " clip-rule="nonzero"/></clipPath></defs><g clip-path="url(#f68ed3287b)"><path fill="#000000" d="M 63.601562 61.917969 C 63.402344 60.113281 62.796875 58.796875 62.769531 58.742188 C 62.765625 58.734375 62.761719 58.726562 62.757812 58.714844 L 43.867188 21.421875 C 43.824219 21.339844 43.769531 21.265625 43.710938 21.199219 L 42.410156 18.632812 L 44.667969 13.363281 C 45.246094 14.566406 46.222656 15.507812 47.460938 16.039062 C 48.152344 16.332031 48.878906 16.480469 49.625 16.480469 C 51.828125 16.480469 53.8125 15.175781 54.679688 13.15625 C 55.871094 10.375 54.574219 7.144531 51.789062 5.953125 C 51.101562 5.65625 50.371094 5.507812 49.628906 5.507812 C 47.425781 5.507812 45.441406 6.8125 44.574219 8.835938 C 44.484375 9.039062 44.414062 9.246094 44.351562 9.453125 L 41.328125 16.5 L 37.867188 9.667969 C 37.792969 9.460938 37.703125 9.257812 37.601562 9.054688 C 36.660156 7.199219 34.78125 6.042969 32.695312 6.042969 C 31.839844 6.042969 30.984375 6.25 30.21875 6.636719 C 27.511719 8 26.425781 11.308594 27.792969 14.007812 C 28.734375 15.863281 30.613281 17.019531 32.699219 17.019531 C 33.566406 17.019531 34.398438 16.820312 35.175781 16.425781 C 36.414062 15.804688 37.3125 14.773438 37.792969 13.582031 L 40.386719 18.699219 L 39.25 21.34375 C 39.191406 21.410156 39.144531 21.488281 39.109375 21.574219 L 32.71875 36.464844 L 27.707031 25.738281 C 27.605469 25.519531 27.417969 25.347656 27.191406 25.265625 C 26.960938 25.183594 26.710938 25.191406 26.488281 25.296875 L 26.015625 25.515625 C 25.550781 24.875 24.785156 23.757812 24.121094 22.472656 C 23.234375 20.757812 22.351562 18.410156 23.183594 16.96875 C 23.3125 16.738281 23.339844 16.464844 23.253906 16.214844 C 23.21875 16.117188 22.417969 13.8125 20.726562 11.34375 C 18.429688 7.996094 15.582031 5.96875 12.488281 5.476562 C 12.152344 5.421875 11.816406 5.558594 11.609375 5.828125 C 11.40625 6.101562 11.367188 6.460938 11.511719 6.765625 L 21.296875 27.710938 L 20.980469 27.859375 C 20.523438 28.074219 20.324219 28.617188 20.539062 29.078125 L 28.539062 46.207031 L 22.628906 59.988281 C 22.625 59.996094 22.621094 60.007812 22.617188 60.015625 C 22.59375 60.070312 22.070312 61.421875 21.984375 63.238281 C 21.875 65.695312 22.617188 67.847656 24.140625 69.464844 C 24.316406 69.648438 24.558594 69.753906 24.808594 69.753906 C 24.863281 69.753906 24.917969 69.746094 24.96875 69.738281 C 25.273438 69.683594 25.53125 69.480469 25.652344 69.195312 L 32.175781 53.992188 L 38.113281 66.695312 C 38.269531 67.027344 38.601562 67.222656 38.945312 67.222656 C 39.074219 67.222656 39.207031 67.195312 39.332031 67.140625 L 44.839844 64.574219 C 45.0625 64.472656 45.234375 64.285156 45.316406 64.058594 C 45.398438 63.828125 45.386719 63.578125 45.285156 63.359375 L 36.355469 44.25 L 41.417969 32.457031 C 41.542969 32.160156 41.507812 31.824219 41.320312 31.5625 C 41.3125 31.554688 40.609375 30.554688 40.199219 28.914062 C 39.730469 27.023438 39.820312 25.089844 40.46875 23.160156 L 41.464844 20.832031 L 42.613281 23.09375 C 43.382812 24.980469 43.59375 26.898438 43.242188 28.816406 C 42.941406 30.480469 42.300781 31.523438 42.296875 31.53125 C 42.125 31.800781 42.109375 32.144531 42.253906 32.429688 L 60.324219 68.097656 C 60.460938 68.375 60.730469 68.558594 61.039062 68.59375 C 61.074219 68.597656 61.105469 68.601562 61.140625 68.601562 C 61.414062 68.601562 61.671875 68.480469 61.847656 68.269531 C 63.265625 66.558594 63.871094 64.363281 63.601562 61.917969 Z M 46.257812 9.554688 C 46.835938 8.210938 48.160156 7.339844 49.628906 7.339844 C 50.121094 7.339844 50.605469 7.4375 51.066406 7.636719 C 52.921875 8.429688 53.785156 10.582031 52.992188 12.433594 C 52.414062 13.78125 51.09375 14.652344 49.625 14.652344 C 49.128906 14.652344 48.644531 14.550781 48.183594 14.355469 C 47.285156 13.96875 46.589844 13.257812 46.226562 12.351562 C 45.863281 11.445312 45.875 10.453125 46.257812 9.554688 Z M 34.351562 14.792969 C 33.832031 15.054688 33.277344 15.1875 32.699219 15.1875 C 31.308594 15.1875 30.054688 14.417969 29.429688 13.179688 C 28.519531 11.382812 29.242188 9.179688 31.046875 8.269531 C 31.5625 8.007812 32.117188 7.875 32.695312 7.875 C 34.085938 7.875 35.339844 8.644531 35.964844 9.882812 C 36.875 11.679688 36.152344 13.882812 34.351562 14.792969 Z M 14.019531 7.796875 C 15.910156 8.578125 17.640625 10.101562 19.1875 12.339844 C 20.382812 14.074219 21.109375 15.753906 21.386719 16.460938 C 20.648438 18.160156 21.019531 20.464844 22.492188 23.3125 C 23.117188 24.527344 23.820312 25.589844 24.324219 26.304688 L 22.960938 26.9375 Z M 24.597656 67.007812 C 24.023438 65.96875 23.761719 64.753906 23.816406 63.375 C 23.875 61.925781 24.277344 60.804688 24.320312 60.691406 L 29.582031 48.433594 L 29.703125 48.699219 L 30.398438 50.179688 L 31.136719 51.765625 Z M 43.234375 63.300781 L 39.386719 65.09375 L 22.585938 29.132812 L 22.902344 28.984375 L 26.117188 27.488281 L 26.433594 27.34375 Z M 35.316406 42.023438 L 34.585938 40.460938 L 33.894531 38.980469 L 33.761719 38.691406 L 38.210938 28.316406 C 38.273438 28.726562 38.355469 29.105469 38.441406 29.445312 C 38.769531 30.710938 39.238281 31.65625 39.539062 32.175781 Z M 61.238281 65.84375 L 44.109375 32.03125 C 44.375 31.492188 44.785156 30.519531 45.03125 29.238281 C 45.097656 28.890625 45.152344 28.507812 45.191406 28.09375 L 61.113281 59.527344 C 61.164062 59.640625 61.636719 60.730469 61.785156 62.171875 C 61.929688 63.542969 61.742188 64.773438 61.238281 65.84375 Z M 61.238281 65.84375 " fill-opacity="1" fill-rule="nonzero"/></g></svg>